Coordinates
version=1
nRows=17
nColumns=40
inDegrees=yes

Units are S.I. units (second, meters, Newtons, ...)
Angles are in degrees.

endheader
time	pelvis_tilt	pelvis_list	pelvis_rotation	pelvis_tx	pelvis_ty	pelvis_tz	hip_flexion_r	hip_adduction_r	hip_rotation_r	knee_angle_r	knee_angle_r_beta	ankle_angle_r	subtalar_angle_r	mtp_angle_r	hip_flexion_l	hip_adduction_l	hip_rotation_l	knee_angle_l	knee_angle_l_beta	ankle_angle_l	subtalar_angle_l	mtp_angle_l	lumbar_extension	lumbar_bending	lumbar_rotation	arm_flex_r	arm_add_r	arm_rot_r	elbow_flex_r	pro_sup_r	wrist_flex_r	wrist_dev_r	arm_flex_l	arm_add_l	arm_rot_l	elbow_flex_l	pro_sup_l	wrist_flex_l	wrist_dev_l
     34.49000000	     -5.53385303	     -4.41168241	     -0.11689617	      1.06643146	      0.91377280	      0.46688680	      2.95682891	     -2.47789701	    -12.46340720	     34.84567445	     34.84567445	     12.86045934	     -5.29088282	    -13.81722504	     30.56003320	     -7.11833187	     -5.46251266	     28.01130314	     28.01130314	      6.28891648	    -16.10310452	      4.42926729	     -6.78784669	      3.17239334	      2.83679050	     37.74475305	    -15.98014132	     -5.08885090	    104.99432129	     44.36444092	      0.00000000	      0.00000000	    -14.51430611	     -6.10105056	     12.21243895	     22.96631887	     42.85092536	      0.00000000	      0.00000000
     34.50114286	     -5.52306117	     -4.30371212	     -0.16639377	      1.06635353	      0.91535483	      0.46445390	      4.90420464	     -3.04841989	    -11.66176380	     38.91526235	     38.91526235	      9.99547227	     -8.68709945	    -15.74920723	     29.69367294	     -6.96718435	     -5.95363260	     27.69939072	     27.69939072	      6.63606436	    -15.70279234	      3.05744336	     -6.86475268	      3.11832819	      3.20981233	     35.09497605	    -16.51851942	     -5.94985528	    106.16591379	     44.40365854	      0.00000000	      0.00000000	    -12.88461509	     -6.47334002	     12.83250540	     22.80809319	     42.95345929	      0.00000000	      0.00000000
     34.51228571	     -5.47465052	     -4.03805802	     -0.21620618	      1.06607063	      0.91695095	      0.46197201	      7.03221930	     -3.95081515	    -11.21591456	     43.33588529	     43.33588529	      7.92082140	    -10.60619774	    -15.35960920	     28.73233268	     -6.61571613	     -6.46023557	     27.30473421	     27.30473421	      7.25197587	    -15.24670505	      2.64560437	     -6.96947680	      2.89266768	      2.67376236	     33.21118709	    -16.32757693	     -5.69123341	    105.66131128	     44.41017196	      0.00000000	      0.00000000	    -11.77590643	     -6.79793784	     12.84706254	     23.13100950	     42.99199895	      0.00000000	      0.00000000
     34.52342857	     -5.38239990	     -3.84178524	     -0.23368584	      1.06558926	      0.91852606	      0.45970013	      9.17769614	     -4.67916741	    -10.70576925	     47.62650211	     47.62650211	      5.84857820	    -12.52455721	    -14.61234789	     27.76060016	     -6.32829401	     -6.88579201	     26.93054716	     26.93054716	      7.78706785	    -14.76256773	      2.22337316	     -7.14169015	      2.75166511	      2.19037844	     31.17359115	    -16.12574193	     -5.44616497	    105.08712951	     44.41671353	      0.00000000	      0.00000000	    -10.49433855	     -7.17901708	     12.81040018	     23.53787475	     43.03623259	      0.00000000	      0.00000000
     34.53457143	     -5.44266600	     -3.86227954	     -0.34759485	      1.06493378	      0.91987244	      0.45792796	     11.74919214	     -4.90081769	     -9.78922097	     52.14822618	     52.14822618	      5.51438184	    -13.61153732	     -8.45004016	     26.86608231	     -6.35117061	     -7.47544687	     26.33155776	     26.33155776	      7.75371200	    -14.24988751	      0.30238434	     -7.17878055	      2.83860300	      2.53353653	     28.42671155	    -16.42971977	     -6.40305413	    105.08259411	     44.49416738	      0.00000000	      0.00000000	     -8.88006591	     -7.64252306	     12.98198220	     23.88316416	     43.22323948	      0.00000000	      0.00000000
     34.54571429	     -5.36927555	     -3.71297922	     -0.39798067	      1.06419754	      0.92128293	      0.45603995	     13.97955237	     -5.41279976	     -9.21354471	     55.98597611	     55.98597611	      3.72666350	    -14.96542004	     -7.73693410	     25.89416882	     -6.09635192	     -7.81386243	     25.86803623	     25.86803623	      8.21793817	    -13.88331154	      0.05717457	     -7.35879096	      2.75252367	      2.03895426	     26.29672212	    -16.15647698	     -6.04129038	    104.12796506	     44.50825360	      0.00000000	      0.00000000	     -7.55853620	     -8.10302319	     12.90545670	     24.33615891	     43.27454285	      0.00000000	      0.00000000
     34.55685714	     -5.32754280	     -3.74879257	     -0.46531922	      1.06332975	      0.92259338	      0.45450072	     16.42318861	     -5.51533336	     -8.44509754	     59.91795806	     59.91795806	      4.06565957	    -15.15504734	     -1.56515861	     24.95799403	     -6.07835022	     -8.15226363	     25.34574144	     25.34574144	      8.33213781	    -13.48896699	     -1.10900759	     -7.49935117	      2.84732490	      1.91352059	     23.97293878	    -16.05535109	     -6.41678990	    102.73589062	     44.60643187	      0.00000000	      0.00000000	     -6.04327563	     -8.61475909	     12.68721404	     25.06690330	     43.51848808	      0.00000000	      0.00000000
     34.56800000	     -5.16140208	     -3.71369005	     -0.45294201	      1.06247937	      0.92393354	      0.45290445	     18.46174126	     -5.76886507	     -7.97363531	     63.05694647	     63.05694647	      2.78248024	    -15.95288647	     -1.32508106	     23.97329673	     -5.91680262	     -8.28729197	     24.97592124	     24.97592124	      8.78714156	    -13.23985780	     -1.28950319	     -7.84754540	      2.92369412	      1.43105069	     21.79940303	    -15.65732920	     -6.01254690	    101.65679013	     44.62079589	      0.00000000	      0.00000000	     -4.54995482	     -9.13365738	     12.56212384	     25.59146592	     43.57312824	      0.00000000	      0.00000000
     34.57914286	     -5.15487665	     -3.71583173	     -0.57941852	      1.06154211	      0.92507533	      0.45162205	     20.78771165	     -5.77059968	     -7.21374568	     66.06150830	     66.06150830	      2.64401636	    -16.21199586	      1.40311666	     23.05408602	     -5.85538897	     -8.58270873	     24.40598445	     24.40598445	      8.91422666	    -12.95652379	     -2.08166365	     -7.88595515	      2.98675562	      1.41384172	     19.56571914	    -15.49488158	     -6.63673581	     99.01351583	     44.74576663	      0.00000000	      0.00000000	     -3.11289553	     -9.64648842	     12.00791092	     26.50428087	     43.80544984	      0.00000000	      0.00000000
     34.59028571	     -5.01154781	     -3.72517305	     -0.62168315	      1.06066940	      0.92628955	      0.45031900	     22.76446581	     -5.81486919	     -6.68656561	     68.46130567	     68.46130567	      1.98227205	    -16.50059089	      1.45250219	     22.09347139	     -5.76090172	     -8.70296150	     24.02490700	     24.02490700	      9.30348175	    -12.73416046	     -2.20516499	     -8.17503326	      3.12146135	      1.08527171	     17.25648649	    -15.23315302	     -6.23955508	     97.56543790	     44.77184268	      0.00000000	      0.00000000	     -1.53709278	    -10.25697125	     11.80568989	     27.15079594	     43.87419201	      0.00000000	      0.00000000
     34.60142857	     -4.93183199	     -3.74358723	     -0.70730398	      1.05979484	      0.92738404	      0.44912933	     24.76694628	     -5.75671413	     -6.10050777	     70.48676427	     70.48676427	      1.60411046	    -16.66729516	      1.55628743	     21.12972033	     -5.66785488	     -8.81169932	     23.51104506	     23.51104506	      9.66404465	    -12.57492709	     -2.39157604	     -8.33722925	      3.23300552	      1.21017734	     14.96173716	    -15.38951926	     -6.27565039	     95.00802840	     44.84888337	      0.00000000	      0.00000000	      0.21536716	    -10.78214002	     11.49374554	     28.04966021	     43.96880450	      0.00000000	      0.00000000
     34.61257143	     -4.77450489	     -3.78880942	     -0.78177888	      1.05900489	      0.92854081	      0.44806511	     26.56837380	     -5.65519126	     -5.60906261	     72.04260434	     72.04260434	      1.39895417	    -16.63439614	      1.55051699	     20.12214337	     -5.61076441	     -8.86906246	     23.07521181	     23.07521181	     10.00550051	    -12.45106869	     -2.58485523	     -8.58380756	      3.39392223	      1.16577311	     12.78732814	    -15.20655362	     -6.33203564	     92.41603013	     44.92715755	      0.00000000	      0.00000000	      1.89807009	    -11.30794759	     11.17271672	     28.92543143	     44.05984759	      0.00000000	      0.00000000
     34.62371429	     -4.60042863	     -3.84916856	     -0.83912166	      1.05819556	      0.92966925	      0.44701276	     28.24825258	     -5.56112208	     -5.22606870	     73.14085617	     73.14085617	      1.23523189	    -16.55064982	      1.47175195	     19.10734268	     -5.56008775	     -8.92589203	     22.63653371	     22.63653371	     10.31000076	    -12.37746177	     -2.76209331	     -8.89845482	      3.59269925	      1.17386221	     10.61953319	    -14.96578235	     -6.39839787	     89.54652082	     45.01409202	      0.00000000	      0.00000000	      3.64899202	    -11.81556231	     10.82762283	     29.86948980	     44.15181544	      0.00000000	      0.00000000
     34.63485714	     -4.39061246	     -3.98209151	     -0.89829290	      1.05748147	      0.93079575	      0.44612010	     29.74212383	     -5.38148937	     -4.95606641	     73.75822176	     73.75822176	      1.20166976	    -16.41352698	      1.30047161	     18.01546962	     -5.57431657	     -8.88716256	     22.12471495	     22.12471495	     10.47308222	    -12.49014314	     -3.26489382	     -9.13719269	      3.80938319	      0.78796865	      9.63825328	    -14.04613156	     -7.30446289	     84.47992729	     45.20583313	      0.00000000	      0.00000000	      5.16617274	    -12.47357491	      9.99036353	     31.12204506	     44.34546980	      0.00000000	      0.00000000
     34.64600000	     -4.19650717	     -4.06060163	     -1.00879124	      1.05683584	      0.93179022	      0.44528682	     31.15255226	     -5.24829603	     -4.68099203	     73.93451190	     73.93451190	      1.16684310	    -16.29666760	      1.14601302	     16.94017004	     -5.56119422	     -8.95559891	     21.65547105	     21.65547105	     10.80124708	    -12.40695382	     -3.40896133	     -9.44218353	      4.02117549	      1.05927619	      7.66160700	    -14.18011921	     -7.16113988	     81.39749795	     45.29307511	      0.00000000	      0.00000000	      7.03451468	    -12.91602032	      9.46405180	     32.35629568	     44.46744069	      0.00000000	      0.00000000
     34.65714286	     -3.98251913	     -4.17280554	     -1.09822392	      1.05624134	      0.93271814	      0.44449052	     32.37701480	     -5.10558258	     -4.54929223	     73.62953638	     73.62953638	      1.13790442	    -16.23601038	      1.02755653	     15.86407051	     -5.57635158	     -9.00752037	     21.22214012	     21.22214012	     11.13813882	    -12.34493950	     -3.56125268	     -9.73183378	      4.29071820	      1.14891881	      6.03853944	    -13.93102340	     -7.28162511	     77.54366749	     45.41440323	      0.00000000	      0.00000000	      8.80135186	    -13.38438769	      8.88872467	     33.63781513	     44.59358589	      0.00000000	      0.00000000
     34.66828571	     -3.82157406	     -4.31560761	     -1.19195028	      1.05562619	      0.93351995	      0.44383888	     33.50835490	     -4.93847747	     -4.51814757	     72.85373351	     72.85373351	      1.05031004	    -16.19957996	      0.90082614	     14.84637336	     -5.63282248	     -9.04804390	     20.78450434	     20.78450434	     11.44425593	    -12.30596485	     -3.76485208	     -9.94776240	      4.52329700	      0.61575900	      5.56710793	    -13.11219747	     -7.70223459	     71.82715447	     45.60488525	      0.00000000	      0.00000000	     10.03336288	    -14.05294453	      7.81368563	     35.27125099	     44.80273735	      0.00000000	      0.00000000
